<svg xmlns="http://www.w3.org/2000/svg" width="1199" height="522" viewBox="0 0 1199 522">
<rect width="1199" height="522" fill="#1F2326"/>
<g transform="translate(110.00,276.80) scale(0.24000,-0.24000)"><path d="M674 695 413 0H281L19 695H141L347 117L554 695Z" fill="#F4F5F3"/></g>
<g transform="translate(290.96,276.80) scale(0.24000,-0.24000)"><path d="M189 695V0H75V695Z" fill="#F4F5F3"/></g>
<g transform="translate(368.72,276.80) scale(0.24000,-0.24000)"><path d="M494 142H203L153 0H34L283 696H415L664 0H544ZM462 235 349 558 235 235Z" fill="#F4F5F3"/></g>
<g transform="translate(550.40,276.80) scale(0.24000,-0.24000)"><path d="M671 345Q671 239 625.5 161.0Q580 83 496.5 41.5Q413 0 302 0H75V695H302Q413 695 496.5 652.5Q580 610 625.5 530.5Q671 451 671 345ZM554 345Q554 466 489.0 534.0Q424 602 302 602H189V93H302Q424 93 489.0 159.0Q554 225 554 345Z" fill="#F4F5F3"/></g>
<g transform="translate(734.96,276.80) scale(0.24000,-0.24000)"><path d="M37 349Q37 451 84.5 532.0Q132 613 213.5 658.5Q295 704 392 704Q490 704 571.5 658.5Q653 613 700.0 532.0Q747 451 747 349Q747 247 700.0 165.5Q653 84 571.5 38.5Q490 -7 392 -7Q295 -7 213.5 38.5Q132 84 84.5 165.5Q37 247 37 349ZM630 349Q630 426 599.5 484.0Q569 542 515.0 573.0Q461 604 392 604Q323 604 269.0 573.0Q215 542 184.5 484.0Q154 426 154 349Q154 272 184.5 213.5Q215 155 269.0 123.5Q323 92 392 92Q461 92 515.0 123.5Q569 155 599.5 213.5Q630 272 630 349Z" fill="#F4F5F3"/></g>
<g transform="translate(937.52,276.80) scale(0.24000,-0.24000)"><path d="M436 0 276 278H189V0H75V695H315Q395 695 450.5 667.0Q506 639 533.5 592.0Q561 545 561 487Q561 419 521.5 363.5Q482 308 400 288L572 0ZM189 369H315Q379 369 411.5 401.0Q444 433 444 487Q444 541 412.0 571.5Q380 602 315 602H189Z" fill="#F4F5F3"/></g>
<rect x="374.38" y="315.20" width="450.43" height="9.12" fill="#6B745E"/>
<g transform="translate(334.28,411.78) scale(0.06480,-0.06480)"><path d="M315 282H189V0H75V695H315Q395 695 450.5 667.5Q506 640 533.5 593.0Q561 546 561 488Q561 435 536.0 388.0Q511 341 456.0 311.5Q401 282 315 282ZM444 488Q444 602 315 602H189V375H315Q380 375 412.0 404.5Q444 434 444 488Z" fill="#A8B0A6"/></g>
<g transform="translate(402.64,411.78) scale(0.06480,-0.06480)"><path d="M494 142H203L153 0H34L283 696H415L664 0H544ZM462 235 349 558 235 235Z" fill="#A8B0A6"/></g>
<g transform="translate(477.61,411.78) scale(0.06480,-0.06480)"><path d="M436 0 276 278H189V0H75V695H315Q395 695 450.5 667.0Q506 639 533.5 592.0Q561 545 561 487Q561 419 521.5 363.5Q482 308 400 288L572 0ZM189 369H315Q379 369 411.5 401.0Q444 433 444 487Q444 541 412.0 571.5Q380 602 315 602H189Z" fill="#A8B0A6"/></g>
<g transform="translate(548.38,411.78) scale(0.06480,-0.06480)"><path d="M524 695V602H339V0H225V602H39V695Z" fill="#A8B0A6"/></g>
<g transform="translate(614.73,411.78) scale(0.06480,-0.06480)"><path d="M646 0H532L189 519V0H75V696H189L532 178V696H646Z" fill="#A8B0A6"/></g>
<g transform="translate(691.26,411.78) scale(0.06480,-0.06480)"><path d="M189 603V399H429V306H189V93H459V0H75V696H459V603Z" fill="#A8B0A6"/></g>
<g transform="translate(755.02,411.78) scale(0.06480,-0.06480)"><path d="M436 0 276 278H189V0H75V695H315Q395 695 450.5 667.0Q506 639 533.5 592.0Q561 545 561 487Q561 419 521.5 363.5Q482 308 400 288L572 0ZM189 369H315Q379 369 411.5 401.0Q444 433 444 487Q444 541 412.0 571.5Q380 602 315 602H189Z" fill="#A8B0A6"/></g>
<g transform="translate(825.78,411.78) scale(0.06480,-0.06480)"><path d="M58 192H180Q184 147 215.5 118.0Q247 89 304 89Q363 89 396.0 117.5Q429 146 429 191Q429 226 408.5 248.0Q388 270 357.5 282.0Q327 294 273 308Q205 326 162.5 344.5Q120 363 90.0 402.0Q60 441 60 506Q60 566 90.0 611.0Q120 656 174.0 680.0Q228 704 299 704Q400 704 464.5 653.5Q529 603 536 515H410Q407 553 374.0 580.0Q341 607 287 607Q238 607 207.0 582.0Q176 557 176 510Q176 478 195.5 457.5Q215 437 245.0 425.0Q275 413 327 399Q396 380 439.5 361.0Q483 342 513.5 302.5Q544 263 544 197Q544 144 515.5 97.0Q487 50 432.5 21.5Q378 -7 304 -7Q234 -7 178.0 17.5Q122 42 90.0 87.0Q58 132 58 192Z" fill="#A8B0A6"/></g>
</svg>